<?xml version="1.0" standalone="no"?>
<!DOCTYPE svg PUBLIC "-//W3C//DTD SVG 20010904//EN"
 "http://www.w3.org/TR/2001/REC-SVG-20010904/DTD/svg10.dtd">
<svg version="1.0" xmlns="http://www.w3.org/2000/svg"
 width="1024.000000pt" height="1024.000000pt" viewBox="0 0 1024.000000 1024.000000"
 preserveAspectRatio="xMidYMid meet">
<metadata>
Created by potrace 1.14, written by Peter Selinger 2001-2017
</metadata>
<g transform="translate(0.000000,1024.000000) scale(0.100000,-0.100000)"
fill="#000000" stroke="none">
<path d="M4830 6955 l0 -475 -567 -2 -568 -3 -3 -267 -2 -268 1430 0 1430 0 0
270 0 270 -570 0 -570 0 0 475 0 475 -290 0 -290 0 0 -475z"/>
<path d="M860 7115 l0 -265 780 0 780 0 0 -610 0 -610 300 0 300 0 0 875 0
875 -1080 0 -1080 0 0 -265z"/>
<path d="M7210 6515 l0 -845 1088 2 1087 3 0 840 0 840 -1087 3 -1088 2 0
-845z m1610 0 l0 -315 -520 0 -520 0 0 315 0 315 520 0 520 0 0 -315z"/>
<path d="M4830 4135 l0 -475 -570 0 -570 0 0 -265 0 -265 1430 0 1430 0 0 265
0 265 -570 0 -570 0 0 475 0 475 -290 0 -290 0 0 -475z"/>
<path d="M860 4295 l0 -265 780 0 780 0 0 -610 0 -610 300 0 300 0 0 875 0
875 -1080 0 -1080 0 0 -265z"/>
<path d="M7217 4543 c-4 -3 -7 -386 -7 -850 l0 -843 1088 2 1087 3 3 825 c1
454 0 835 -3 848 l-5 22 -1079 0 c-593 0 -1081 -3 -1084 -7z m1603 -848 l0
-315 -522 0 -523 0 3 315 3 315 519 0 520 0 0 -315z"/>
</g>
</svg>
